0
SECTION
2
HEADER
9
$INSUNITS
70
4
9
$ACADVER
1
AC1014
9
$HANDSEED
5
FFFF
0
ENDSEC
0
SECTION
2
TABLES
0
TABLE
2
VPORT
5
8
100
AcDbSymbolTable
0
ENDTAB
0
TABLE
2
LTYPE
5
5
100
AcDbSymbolTable
0
LTYPE
5
14
100
AcDbSymbolTableRecord
100
AcDbLinetypeTableRecord
2
BYBLOCK
70
0
0
LTYPE
5
15
100
AcDbSymbolTableRecord
100
AcDbLinetypeTableRecord
2
BYLAYER
70
0
0
ENDTAB
0
TABLE
2
LAYER
5
2
100
AcDbSymbolTable
70
2
0
LAYER
5
50
100
AcDbSymbolTableRecord
100
AcDbLayerTableRecord
2
0
70
0
6
CONTINUOUS
0
ENDTAB
0
TABLE
2
STYLE
5
3
100
AcDbSymbolTable
70
1
0
STYLE
5
11
100
AcDbSymbolTableRecord
100
AcDbTextStyleTableRecord
2
STANDARD
70
0
0
ENDTAB
0
TABLE
2
VIEW
5
6
100
AcDbSymbolTable
70
0
0
ENDTAB
0
TABLE
2
UCS
5
7
100
AcDbSymbolTable
70
0
0
ENDTAB
0
TABLE
2
APPID
5
9
100
AcDbSymbolTable
70
2
0
APPID
5
12
100
AcDbSymbolTableRecord
100
AcDbRegAppTableRecord
2
ACAD
70
0
0
ENDTAB
0
TABLE
2
DIMSTYLE
5
A
100
AcDbSymbolTable
70
1
0
ENDTAB
0
TABLE
2
BLOCK_RECORD
5
1
100
AcDbSymbolTable
70
1
0
BLOCK_RECORD
5
1F
100
AcDbSymbolTableRecord
100
AcDbBlockTableRecord
2
*MODEL_SPACE
0
BLOCK_RECORD
5
1B
100
AcDbSymbolTableRecord
100
AcDbBlockTableRecord
2
*PAPER_SPACE
0
ENDTAB
0
ENDSEC
0
SECTION
2
BLOCKS
0
BLOCK
5
20
100
AcDbEntity
100
AcDbBlockBegin
2
*MODEL_SPACE
0
ENDBLK
5
21
100
AcDbEntity
100
AcDbBlockEnd
0
BLOCK
5
1C
100
AcDbEntity
100
AcDbBlockBegin
2
*PAPER_SPACE
0
ENDBLK
5
1D
100
AcDbEntity
100
AcDbBlockEnd
0
ENDSEC
0
SECTION
2
ENTITIES
0
LWPOLYLINE
5
100
100
AcDbEntity
8
0
100
AcDbPolyline
90
8
70
1
43
0.0
10
-47.909115114825639
20
136.01455344050811
42
5.768291605885433
10
-47.909115114825632
20
198.28678475529262
42
0.5187398070096837
10
-47.108716569977524
20
197.15066909790039
10
-39.806920528411844
20
197.15066909790039
10
-14.806920528411869
20
187.82406121324595
10
-14.806920528411869
20
146.47727698255483
10
-39.806920528411851
20
137.15066909790039
10
-47.108716569977531
20
137.15066909790039
42
0.51873980700971301
0
CIRCLE
5
101
100
AcDbEntity
8
0
100
AcDbCircle
10
-6.7688613055376923
20
121.18872832077506
30
0
40
1.4999999999999889
210
0
220
-0
230
1
0
CIRCLE
5
102
100
AcDbEntity
8
0
100
AcDbCircle
10
-6.7688613055376923
20
213.11260987502575
30
0
40
1.500000000000004
210
0
220
-0
230
1
0
LWPOLYLINE
5
103
100
AcDbEntity
8
0
100
AcDbPolyline
90
8
70
1
43
0.0
10
61.69307947158817
20
246.02566909790039
10
61.693079471588149
20
217.72566909790038
42
-0.41421356237305834
10
60.84307947158814
20
216.87566909790038
10
17.543079471588143
20
216.87566909790038
42
-0.41421356237307283
10
16.693079471588131
20
217.72566909790041
10
16.693079471588145
20
246.02566909790042
42
-0.41421356237305601
10
17.543079471588147
20
246.87566909790038
10
60.843079471588162
20
246.87566909790038
42
-0.41421356237307055
0
LWPOLYLINE
5
104
100
AcDbEntity
8
0
100
AcDbPolyline
90
4
70
1
43
0.0
10
0.44307947158814248
20
198.40066909790039
42
0.99999999999999989
10
0.4430794715881281
20
185.90066909790039
10
17.943079471588138
20
185.90066909790039
42
0.99999999999999989
10
17.943079471588138
20
198.40066909790039
0
LWPOLYLINE
5
105
100
AcDbEntity
8
0
100
AcDbPolyline
90
8
70
1
43
0.0
10
82.093079471588126
20
130.40066909790039
10
56.293079471588115
20
130.40066909790039
42
-0.41421356237309809
10
55.443079471588106
20
131.25066909790038
10
55.443079471588121
20
203.0506690979004
42
-0.41421356237307055
10
56.293079471588129
20
203.90066909790039
10
82.09307947158814
20
203.90066909790036
42
-0.41421356237307672
10
82.943079471588149
20
203.0506690979004
10
82.943079471588135
20
131.25066909790038
42
-0.41421356237307055
0
CIRCLE
5
106
100
AcDbEntity
8
0
100
AcDbCircle
10
84.818079471588248
20
129.52566909790033
30
0
40
1.625000000000004
210
0
220
-0
230
1
0
CIRCLE
5
107
100
AcDbEntity
8
0
100
AcDbCircle
10
84.818079471588263
20
204.77566909790033
30
0
40
1.624999999999982
210
0
220
-0
230
1
0
CIRCLE
5
108
100
AcDbEntity
8
0
100
AcDbCircle
10
53.568079471588348
20
204.77566909790033
30
0
40
1.625000000000036
210
0
220
-0
230
1
0
CIRCLE
5
109
100
AcDbEntity
8
0
100
AcDbCircle
10
53.568079471588348
20
129.52566909790033
30
0
40
1.6250000000000324
210
0
220
-0
230
1
0
LWPOLYLINE
5
110
100
AcDbEntity
8
0
100
AcDbPolyline
90
4
70
1
43
0.0
10
0.4430794715881432
20
148.40066909790039
42
0.99999999999999989
10
0.44307947158812588
20
135.90066909790039
10
17.943079471588142
20
135.90066909790039
42
0.99999999999999989
10
17.943079471588135
20
148.40066909790039
0
CIRCLE
5
111
100
AcDbEntity
8
0
100
AcDbCircle
10
104.19307947158813
20
197.15066909790039
30
0
40
1.4999999999999971
210
0
220
-0
230
1
0
CIRCLE
5
112
100
AcDbEntity
8
0
100
AcDbCircle
10
104.19307947158813
20
137.15066909790039
30
0
40
1.4999999999999971
210
0
220
-0
230
1
0
LWPOLYLINE
5
113
100
AcDbEntity
8
0
100
AcDbPolyline
90
8
70
1
43
0.0
10
17.543079471588129
20
117.4256690979004
10
60.843079471588126
20
117.4256690979004
42
-0.41421356237310114
10
61.693079471588142
20
116.57566909790037
10
61.693079471588149
20
88.275669097900376
42
-0.41421356237308893
10
60.84307947158814
20
87.425669097900396
10
17.543079471588143
20
87.425669097900411
42
-0.41421356237308971
10
16.693079471588131
20
88.275669097900391
10
16.693079471588113
20
116.5756690979004
42
-0.41421356237307899
0
LWPOLYLINE
5
114
100
AcDbEntity
8
0
100
AcDbPolyline
90
8
70
1
43
0.0
10
-39.806920528411844
20
197.15066909790039
10
-47.108716569977517
20
197.15066909790042
42
-0.51873980700967692
10
-47.909115114825632
20
198.28678475529267
42
-5.7682916058854179
10
-47.909115114825632
20
136.01455344050802
42
-0.51873980700972111
10
-47.108716569977531
20
137.15066909790042
10
-39.806920528411851
20
137.15066909790042
10
-14.806920528411865
20
146.47727698255483
10
-14.806920528411869
20
187.82406121324595
0
CIRCLE
5
115
100
AcDbEntity
8
0
100
AcDbCircle
10
-6.7688613055376923
20
121.18872832077506
30
0
40
1.4999999999999889
210
0
220
-0
230
1
0
CIRCLE
5
116
100
AcDbEntity
8
0
100
AcDbCircle
10
-6.7688613055376923
20
213.11260987502575
30
0
40
1.500000000000004
210
0
220
-0
230
1
0
LWPOLYLINE
5
117
100
AcDbEntity
8
0
100
AcDbPolyline
90
8
70
1
43
0.0
10
16.693079471588131
20
217.72566909790041
10
16.693079471588145
20
246.02566909790039
42
-0.41421356237306828
10
17.543079471588147
20
246.87566909790038
10
60.843079471588162
20
246.87566909790038
42
-0.41421356237307055
10
61.69307947158817
20
246.02566909790039
10
61.693079471588149
20
217.72566909790041
42
-0.41421356237307055
10
60.84307947158814
20
216.87566909790038
10
17.543079471588129
20
216.87566909790038
42
-0.41421356237306828
0
LWPOLYLINE
5
118
100
AcDbEntity
8
0
100
AcDbPolyline
90
4
70
1
43
0.0
10
0.44307947158814365
20
198.40066909790039
10
17.943079471588153
20
198.40066909790039
42
-0.99999999999999989
10
17.943079471588135
20
185.90066909790039
10
0.44307947158812699
20
185.90066909790039
42
-0.99999999999999989
0
LWPOLYLINE
5
119
100
AcDbEntity
8
0
100
AcDbPolyline
90
8
70
1
43
0.0
10
56.293079471588129
20
203.90066909790039
10
82.09307947158814
20
203.90066909790036
42
-0.41421356237307672
10
82.943079471588135
20
203.0506690979004
10
82.943079471588135
20
131.25066909790038
42
-0.41421356237307055
10
82.093079471588126
20
130.40066909790039
10
56.293079471588108
20
130.40066909790039
42
-0.41421356237309503
10
55.443079471588121
20
131.25066909790038
10
55.443079471588121
20
203.0506690979004
42
-0.41421356237307055
0
CIRCLE
5
120
100
AcDbEntity
8
0
100
AcDbCircle
10
84.818079471588248
20
129.52566909790033
30
0
40
1.625000000000004
210
0
220
-0
230
1
0
CIRCLE
5
121
100
AcDbEntity
8
0
100
AcDbCircle
10
84.818079471588263
20
204.77566909790033
30
0
40
1.624999999999982
210
0
220
-0
230
1
0
CIRCLE
5
122
100
AcDbEntity
8
0
100
AcDbCircle
10
53.568079471588348
20
204.77566909790033
30
0
40
1.625000000000036
210
0
220
-0
230
1
0
CIRCLE
5
123
100
AcDbEntity
8
0
100
AcDbCircle
10
53.568079471588348
20
129.52566909790033
30
0
40
1.6250000000000324
210
0
220
-0
230
1
0
LWPOLYLINE
5
124
100
AcDbEntity
8
0
100
AcDbPolyline
90
4
70
1
43
0.0
10
0.44307947158814365
20
148.40066909790039
10
17.943079471588149
20
148.40066909790042
42
-0.99999999999999989
10
17.943079471588138
20
135.90066909790036
10
0.4430794715881281
20
135.90066909790039
42
-0.99999999999999989
0
CIRCLE
5
125
100
AcDbEntity
8
0
100
AcDbCircle
10
104.19307947158813
20
197.15066909790039
30
0
40
1.4999999999999973
210
0
220
-0
230
1
0
CIRCLE
5
126
100
AcDbEntity
8
0
100
AcDbCircle
10
104.19307947158813
20
137.15066909790039
30
0
40
1.4999999999999973
210
0
220
-0
230
1
0
LWPOLYLINE
5
127
100
AcDbEntity
8
0
100
AcDbPolyline
90
8
70
1
43
0.0
10
60.84307947158814
20
87.425669097900396
10
17.543079471588143
20
87.425669097900411
42
-0.41421356237308971
10
16.693079471588131
20
88.275669097900391
10
16.693079471588113
20
116.57566909790037
42
-0.4142135623730851
10
17.543079471588129
20
117.4256690979004
10
60.84307947158814
20
117.42566909790037
42
-0.41421356237309503
10
61.693079471588135
20
116.57566909790037
10
61.693079471588149
20
88.275669097900391
42
-0.41421356237309503
0
ENDSEC
0
SECTION
2
OBJECTS
0
DICTIONARY
5
C
100
AcDbDictionary
3
ACAD_GROUP
350
D
3
ACAD_MLINESTYLE
350
17
0
DICTIONARY
5
D
100
AcDbDictionary
0
DICTIONARY
5
1A
330
C
100
AcDbDictionary
0
DICTIONARY
5
17
100
AcDbDictionary
0
ENDSEC
0
EOF
